<svg xmlns="http://www.w3.org/2000/svg" width="1024" height="1024" viewBox="0 0 1024 1024"><path fill-rule="evenodd" d="M970.41 899.83H53.59Q39.24 899.83 26.8 892.65Q14.36 885.47 7.18 873.27Q0 861.07 0 846.24V177.76Q0 163.41 7.18 150.97Q14.36 138.53 26.8 131.35Q39.24 124.17 53.59 124.17H970.41Q984.76 124.17 996.96 131.35Q1009.17 138.53 1016.58 150.97Q1024 163.41 1024 177.76V846.24Q1024 861.07 1016.58 873.27Q1009.17 885.47 996.96 892.65Q984.76 899.83 970.41 899.83ZM963.71 243.8Q963.71 215.57 949.83 201.69Q937.87 189.73 912.51 185.9Q896.72 183.99 858.92 184.46H164.61Q126.33 183.99 111.01 185.9Q85.65 189.73 73.69 201.69Q59.81 215.57 59.81 243.8V721.35Q59.81 753.88 76.08 781.4Q92.35 808.91 119.87 824.94Q147.38 840.97 180.4 840.97H843.13Q875.66 840.97 903.42 824.94Q931.17 808.91 947.44 781.4Q963.71 753.88 963.71 721.35ZM762.74 451.95Q740.73 451.95 722.3 441.9Q703.88 431.85 693.11 414.86Q682.35 397.88 682.35 377.78Q682.35 357.68 693.11 340.7Q703.88 323.71 722.3 313.66Q740.73 303.61 762.5 303.61Q784.27 303.61 802.69 313.66Q821.11 323.71 831.88 340.7Q842.65 357.68 842.65 377.78Q842.65 397.88 831.88 414.86Q821.11 431.85 802.69 441.9Q784.27 451.95 762.74 451.95ZM806.76 736.66Q818.72 753.88 822.07 762.98Q825.42 772.07 821.83 776.13Q818.24 780.2 806.76 780.68Q799.58 781.16 779.01 780.44Q758.43 779.72 746.47 779.72H264.61L240.21 780.2Q208.15 780.68 197.62 778.77Q181.83 776.37 179.92 765.61Q178 754.84 190.44 729.48L306.72 499.8Q321.56 471.09 343.57 459.6Q365.58 448.12 389.26 456.25Q412.95 464.39 432.57 491.19L546.93 649.57L578.99 586.41Q593.35 557.7 615.12 546.45Q636.89 535.21 659.86 543.82Q682.83 552.43 701.01 579.71Z"/></svg>
