<svg xmlns="http://www.w3.org/2000/svg" width="1024" height="1024" viewBox="0 0 1024 1024"><path fill-rule="evenodd" d="M155.27 219H867.02Q880.28 219 891.19 225.42Q902.1 231.83 908.51 242.95Q914.93 254.08 914.93 266.91V757.09Q914.93 769.92 908.51 781.05Q902.1 792.17 891.19 798.58Q880.28 805 867.02 805H155.27Q142.44 805 131.31 798.58Q120.19 792.17 113.78 781.05Q107.36 769.92 107.36 757.09V266.91Q107.36 257.5 111 248.73Q114.63 239.96 121.48 233.12Q128.32 226.27 137.09 222.64Q145.86 219 155.27 219ZM258.35 272.04H759.66H779.34Q809.28 271.18 821.68 272.9Q841.78 275.46 851.19 284.87Q862.32 295.99 862.32 319.09V688.23Q862.32 714.75 848.2 729.72Q835.8 743.41 810.99 748.97Q790.88 753.67 759.66 753.67H258.35Q227.13 753.67 207.88 748.97Q184.78 743.41 173.23 729.72Q160.4 714.75 160.4 688.23V319.09Q160.4 295.99 170.24 284.87Q179.22 275.46 197.61 272.9Q209.16 271.61 238.25 272.04ZM47.91 112.49H976.09Q988.93 112.49 1000.05 118.91Q1011.17 125.33 1017.58 136.45Q1024 147.57 1024 160.4V863.6Q1024 876.43 1017.58 887.55Q1011.17 898.67 1000.05 905.09Q988.93 911.51 976.09 911.51H47.91Q34.65 911.51 23.74 905.09Q12.83 898.67 6.42 887.55Q0 876.43 0 863.6V160.4Q0 147.57 6.42 136.45Q12.83 125.33 23.74 118.91Q34.65 112.49 47.91 112.49ZM200.61 165.11H823.82L837.93 164.68Q871.73 164.68 887.12 165.53Q912.79 167.24 929.04 172.81Q948.29 179.65 958.13 193.34Q969.25 208.31 969.25 232.69V727.15Q969.25 772.49 962.83 797.73Q955.99 824.25 940.16 837.29Q924.34 850.34 895.68 855.04Q871.3 859.32 823.82 859.32H200.61Q155.7 859.32 130.03 854.19Q100.95 848.63 84.48 834.73Q68.01 820.83 60.74 795.16Q53.47 769.5 53.47 727.15V232.69Q53.47 208.31 64.59 193.34Q74.85 179.65 94.53 172.81Q110.78 167.24 136.88 165.53Q152.27 164.68 186.49 164.68ZM985.93 144.15Q993.63 151.85 993.63 162.97Q993.63 174.09 985.93 181.79L901.67 265.2Q893.97 272.9 882.85 272.9Q871.73 272.9 863.81 265.2Q855.9 257.5 855.9 246.38Q855.9 235.25 863.6 227.56L947.86 144.15Q955.56 136.45 966.68 136.45Q977.8 136.45 985.93 144.15ZM161.26 268.19Q168.96 260.49 168.96 249.37Q168.96 238.25 161.26 230.55L76.99 147.14Q69.29 139.44 58.17 139.44Q47.05 139.44 39.14 147.36Q31.22 155.27 31.22 166.18Q31.22 177.08 38.92 185.21L123.19 268.19Q130.89 275.89 142.01 275.89Q153.13 275.89 161.26 268.19ZM985.93 879.85Q993.63 872.15 993.63 861.03Q993.63 849.91 985.93 842.21L901.67 759.23Q893.97 751.1 882.85 751.1Q871.73 751.1 863.81 759.02Q855.9 766.93 855.9 778.05Q855.9 789.17 863.6 796.87L947.86 879.85Q955.56 887.98 966.68 887.98Q977.8 887.98 985.93 879.85ZM161.26 756.24Q168.96 763.94 168.96 775.06Q168.96 786.18 161.26 793.88L76.99 876.86Q69.29 884.56 58.17 884.56Q47.05 884.56 39.14 876.86Q31.22 869.16 31.22 858.04Q31.22 846.92 38.92 839.22L123.19 756.24Q130.89 748.11 142.01 748.11Q153.13 748.11 161.26 756.24Z"/></svg>
