<svg xmlns="http://www.w3.org/2000/svg" width="1024" height="1024" viewBox="0 0 1024 1024"><path fill-rule="evenodd" d="M804.57 294.86Q804.57 314.29 790.86 329.14L762.29 357.14Q748 371.43 727.71 371.43Q707.43 371.43 693.71 357.14L582.29 246.29V512.57Q582.29 532.57 568.29 544.86Q554.29 557.14 534.29 557.14H485.71Q465.71 557.14 451.43 544.86Q437.14 532.57 437.14 512.57V246.29L325.71 357.14Q312 371.43 291.71 371.43Q271.43 371.43 257.71 357.14L229.14 329.14Q214.86 314.29 214.86 294.57Q214.86 274.86 229.14 260.57L476 14.29Q489.14 0 509.71 0Q530.29 0 544 14.29L790.86 260.57Q804.57 275.43 804.57 294.86ZM1024 634.86Q1024 618.86 1016 607.71Q1008 596.57 996 596.57H28Q16.57 596.57 8.29 607.71Q0 618.86 0 634.86V985.14Q0 1001.14 8.29 1012.57Q16.57 1024 28 1024H996Q1008 1024 1016 1012.57Q1024 1001.14 1024 985.14ZM939.43 685.14V935.43H704V685.14ZM625.71 685.14V935.43H390.86V685.14ZM312.57 685.14V935.43H77.71V685.14Z"/></svg>
