<svg xmlns="http://www.w3.org/2000/svg" width="1024" height="1024" viewBox="0 0 1024 1024"><path fill-rule="evenodd" d="M575.05 749.03 603.66 821.42 613 844.19Q626.43 872.79 626.43 890.31Q626.43 910.16 610.08 922.71Q593.73 935.26 526.6 935.26V1016.99H1024V935.26Q988.97 935.26 951.32 912.2Q913.66 889.14 867.54 775.3L553.45 7.01H467.05L158.8 775.88Q94.58 935.26 0 935.26V1016.99H331.02V935.26Q275.56 935.26 251.33 921.25Q227.1 907.24 227.1 871.04Q227.1 850.03 247.53 798.07L266.8 749.03ZM416.84 368.38 541.77 664.96H298.33Z"/></svg>
